<svg width="28" height="28" viewBox="0 0 28 28" fill="none" xmlns="http://www.w3.org/2000/svg">
<path d="M1.50858 14.8248L6.17524 19.4915C6.28286 19.6029 6.4116 19.6918 6.55394 19.753C6.69628 19.8141 6.84937 19.8463 7.00428 19.8476C7.15918 19.849 7.31281 19.8195 7.45619 19.7608C7.59957 19.7021 7.72983 19.6155 7.83937 19.506C7.94891 19.3964 8.03554 19.2662 8.0942 19.1228C8.15286 18.9794 8.18238 18.8258 8.18104 18.6709C8.17969 18.516 8.14751 18.3629 8.08636 18.2205C8.02522 18.0782 7.93634 17.9495 7.82491 17.8418L3.98308 14L7.82491 10.1582C7.93634 10.0506 8.02522 9.92182 8.08636 9.77948C8.14751 9.63715 8.17969 9.48406 8.18104 9.32915C8.18238 9.17424 8.15286 9.02061 8.0942 8.87723C8.03554 8.73385 7.94891 8.60359 7.83937 8.49405C7.72983 8.38451 7.59957 8.29788 7.45619 8.23922C7.31281 8.18056 7.15918 8.15104 7.00428 8.15239C6.84937 8.15373 6.69628 8.18592 6.55394 8.24706C6.4116 8.30821 6.28286 8.39708 6.17524 8.50851L1.50858 13.1752C1.28986 13.394 1.16699 13.6907 1.16699 14C1.16699 14.3094 1.28986 14.6061 1.50858 14.8248Z" fill="white"/>
<path d="M21.8252 8.50851C21.7176 8.39708 21.5888 8.30821 21.4465 8.24706C21.3041 8.18592 21.151 8.15373 20.9961 8.15239C20.8412 8.15104 20.6876 8.18056 20.5442 8.23922C20.4008 8.29788 20.2706 8.38451 20.161 8.49405C20.0515 8.60359 19.9649 8.73385 19.9062 8.87723C19.8476 9.02061 19.818 9.17424 19.8194 9.32915C19.8207 9.48406 19.8529 9.63715 19.9141 9.77948C19.9752 9.92182 20.0641 10.0506 20.1755 10.1582L24.0173 14L20.1755 17.8418C20.0641 17.9495 19.9752 18.0782 19.9141 18.2205C19.8529 18.3629 19.8207 18.516 19.8194 18.6709C19.818 18.8258 19.8476 18.9794 19.9062 19.1228C19.9649 19.2662 20.0515 19.3964 20.161 19.506C20.2706 19.6155 20.4008 19.7021 20.5442 19.7608C20.6876 19.8195 20.8412 19.849 20.9961 19.8476C21.151 19.8463 21.3041 19.8141 21.4465 19.753C21.5888 19.6918 21.7176 19.6029 21.8252 19.4915L26.4918 14.8248C26.7106 14.6061 26.8334 14.3094 26.8334 14C26.8334 13.6907 26.7106 13.394 26.4918 13.1752L21.8252 8.50851Z" fill="white"/>
<path d="M15.2125 5.51402L10.5459 21.8474C10.4609 22.1447 10.4975 22.4636 10.6476 22.734C10.7976 23.0044 11.0489 23.2042 11.3462 23.2894C11.4507 23.3182 11.5586 23.3331 11.667 23.3337C11.9206 23.3335 12.1671 23.2507 12.3694 23.0979C12.5717 22.9451 12.7187 22.7305 12.7882 22.4867L17.4549 6.15336C17.5035 6.0042 17.5216 5.84676 17.5079 5.69047C17.4943 5.53417 17.4493 5.38223 17.3757 5.24372C17.302 5.10521 17.2011 4.98299 17.0791 4.88436C16.9571 4.78574 16.8164 4.71273 16.6656 4.66971C16.5147 4.6267 16.3567 4.61455 16.201 4.634C16.0453 4.65346 15.8952 4.70411 15.7595 4.78293C15.6239 4.86175 15.5055 4.96712 15.4115 5.09274C15.3176 5.21836 15.2499 5.36164 15.2125 5.51402Z" fill="white"/>
</svg>
